<?xml version="1.0" standalone="no"?>
<!DOCTYPE svg PUBLIC "-//W3C//DTD SVG 1.1//EN" "http://www.w3.org/Graphics/SVG/1.1/DTD/svg11.dtd" >
<svg xmlns="http://www.w3.org/2000/svg" xmlns:xlink="http://www.w3.org/1999/xlink" version="1.1">
<metadata></metadata>
<defs>
<font id="code_pro_lightregular" horiz-adv-x="1026" >
<font-face units-per-em="2048" ascent="1536" descent="-512" />
<missing-glyph horiz-adv-x="509" />
<glyph horiz-adv-x="0" />
<glyph unicode="&#xd;" horiz-adv-x="681" />
<glyph unicode=" "  horiz-adv-x="509" />
<glyph unicode="&#x09;" horiz-adv-x="509" />
<glyph unicode="&#xa0;" horiz-adv-x="509" />
<glyph unicode="!" horiz-adv-x="339" d="M127 35q0 16 12.5 28.5t28.5 12.5t27.5 -12.5t11.5 -28.5q0 -14 -12.5 -26.5t-26.5 -12.5t-27.5 12t-13.5 27zM143 180v1256h50v-1256h-50z" />
<glyph unicode="&#x22;" horiz-adv-x="417" d="M115 1018v414h45v-414h-45zM268 1018v414h45v-414h-45z" />
<glyph unicode="#" horiz-adv-x="1048" d="M43 481v35h213l66 414h-209v33h215l78 473h40l-77 -473h370l78 473h39l-78 -473h193v-33h-199l-67 -414h194v-35h-201l-77 -481h-39l80 481h-373l-78 -481h-41l80 481h-207zM295 516h373l65 414h-371z" />
<glyph unicode="$" horiz-adv-x="1165" d="M84 358l45 4l2 -20q20 -137 148.5 -223t277.5 -90v669q-94 10 -161.5 26.5t-136.5 50.5t-109.5 97.5t-51.5 155.5q-10 137 70 242q61 80 166.5 126t222.5 50v119h43v-119q162 -4 287 -86t153 -227l2 -23l-43 -8l-2 22q-18 88 -75 152q-121 123 -322 127v-664 q70 -8 106.5 -13t97 -16.5t95.5 -29.5t75 -45t63.5 -69t35.5 -95q10 -47 10 -84q0 -174 -145 -283.5t-338 -117.5v-131h-43v131q-109 4 -209 43t-175 119.5t-87 189.5zM143 1030q6 -66 33 -115t62.5 -78.5t93 -49t105.5 -28.5t120 -18v662q-243 -13 -354 -160 q-68 -80 -60 -213zM600 29q176 6 307 102t131 256q0 39 -8 74q-12 55 -44 95t-67.5 62.5t-97 39t-103.5 22.5t-118 14v-665z" />
<glyph unicode="%" horiz-adv-x="1382" d="M90 1147q0 127 86 212t207 85t207 -85t86 -212q0 -121 -86 -208t-207 -87t-207 85t-86 210zM133 1147q0 -106 71.5 -181t178.5 -75q109 0 180.5 75t71.5 181q0 111 -71.5 184.5t-180.5 73.5q-106 0 -178 -75t-72 -183zM213 -23l899 1489h47l-897 -1489h-49zM698 283 q0 127 86 212t207 85t207 -85t86 -212q0 -121 -86 -208t-207 -87t-207 85t-86 210zM741 283q0 -106 72 -181t178 -75q109 0 180.5 75t71.5 181q0 111 -71.5 184.5t-180.5 73.5q-106 0 -178 -75t-72 -183z" />
<glyph unicode="&#x26;" horiz-adv-x="1191" d="M92 356q0 121 83 242t243 201q-53 61 -85 104t-61.5 110.5t-29.5 127.5q0 150 87 228.5t208 78.5q113 0 198.5 -76t85.5 -211q0 -117 -92 -206t-244 -173l394 -458l125 204l32 -18l-131 -215l236 -277h-54l-208 238q-102 -135 -194.5 -201.5t-207.5 -66.5 q-156 0 -270.5 102.5t-114.5 265.5zM135 356q0 -150 102.5 -237.5t245.5 -87.5q178 0 371 256l-408 481q-131 -59 -221 -176t-90 -236zM285 1143q0 -139 176 -334q317 162 317 350q0 117 -68.5 182.5t-172.5 65.5q-115 0 -183.5 -72.5t-68.5 -191.5z" />
<glyph unicode="'" horiz-adv-x="321" d="M137 1020v412h43v-412h-43z" />
<glyph unicode="(" horiz-adv-x="702" d="M139 721q0 295 138.5 553t363.5 389v-43q-211 -139 -333 -390t-122 -509q0 -260 129 -516t340 -395v-48q-229 139 -372.5 405.5t-143.5 553.5z" />
<glyph unicode=")" horiz-adv-x="731" d="M61 -190q211 139 340 395t129 516q0 256 -122.5 508t-331.5 391v43q223 -129 362.5 -393t139.5 -549q0 -287 -143.5 -553t-373.5 -406v48z" />
<glyph unicode="*" horiz-adv-x="802" d="M84 1260l10 32l283 -92v311h35v-313l293 96l10 -32l-295 -95l196 -264l-28 -20l-195 264l-188 -262l-31 18l193 264z" />
<glyph unicode="+" horiz-adv-x="1069" d="M104 723v41h402v407h43v-407h399v-41h-399v-422h-43v422h-402z" />
<glyph unicode="," horiz-adv-x="296" d="M29 -195l98 271h63l-114 -271h-47z" />
<glyph unicode="-" horiz-adv-x="786" d="M127 694v45h504v-45h-504z" />
<glyph unicode="." horiz-adv-x="307" d="M106 41q0 23 15 36t35 13q18 0 32.5 -14.5t14.5 -34.5q0 -16 -14.5 -30.5t-32.5 -14.5q-20 0 -35 12t-15 33z" />
<glyph unicode="/" horiz-adv-x="772" d="M72 -111l579 1680h43l-577 -1680h-45z" />
<glyph unicode="0" horiz-adv-x="1212" d="M76 717q0 197 56 361.5t179 273t291 108.5t291 -108.5t179 -273.5t56 -361q0 -195 -56 -357.5t-179 -270t-291 -107.5t-291 107.5t-179 270t-56 357.5zM119 717q0 -182 51 -335t163.5 -254t268.5 -101q229 0 357 203.5t128 486.5q0 178 -52 333.5t-165.5 260 t-267.5 104.5q-156 0 -268.5 -102.5t-163.5 -257t-51 -338.5z" />
<glyph unicode="1" horiz-adv-x="567" d="M33 942l352 492h43v-1434h-45v1358l-320 -438z" />
<glyph unicode="2" horiz-adv-x="1124" d="M78 989q0 190 127 317.5t356 127.5q225 0 354 -124t125 -300q-2 -219 -198 -383l-686 -584h888v-43h-962v39l727 618q180 162 186 347q4 160 -112.5 273.5t-321.5 113.5q-209 0 -323.5 -116t-114.5 -286h-45z" />
<glyph unicode="3" horiz-adv-x="1118" d="M72 313l41 6q20 -131 125.5 -213.5t300.5 -82.5q219 0 339.5 102t120.5 246q0 145 -119.5 247.5t-340.5 102.5h-101v41h101q190 0 289.5 93t99.5 230q0 94 -51.5 166t-129 108t-171 44t-177.5 -12.5t-149.5 -77t-85.5 -135.5l-41 8q23 94 96.5 158.5t166.5 89t196.5 15.5 t189.5 -51t142.5 -125t56.5 -189.5t-62 -205t-209 -133.5v-2q162 -33 254.5 -128t92.5 -242q0 -166 -134.5 -279.5t-373.5 -113.5q-211 0 -329 92t-138 241z" />
<glyph unicode="4" horiz-adv-x="1114" d="M57 367v39l811 1028h39v-1024h133v-43h-133v-367h-41v367h-809zM115 410h751v923l2 33l-12 -23z" />
<glyph unicode="5" horiz-adv-x="1126" d="M78 309l41 15q45 -127 151.5 -203t274.5 -76q215 0 333.5 125t116.5 295q0 115 -65.5 218t-177.5 155q-109 45 -220 45q-172 0 -376 -92l-43 20v623h833v-41h-790v-555q182 88 370 88q125 0 234 -45q133 -57 205.5 -170t74.5 -246q2 -186 -129 -325.5t-366 -139.5 q-180 0 -299 85t-168 224z" />
<glyph unicode="6" horiz-adv-x="1155" d="M84 444q0 152 84 269l498 721h53l-377 -549l-55 -68q33 25 49 35q106 55 244 55q236 0 365.5 -138t129.5 -325q0 -188 -130 -324t-365 -136q-233 0 -364.5 136t-131.5 324zM127 444q0 -168 120 -291.5t333 -123.5q215 0 333.5 123.5t118.5 291.5q0 170 -118.5 294 t-333.5 124q-213 0 -333 -124t-120 -294z" />
<glyph unicode="7" horiz-adv-x="1093" d="M59 1391v43h963v-41l-760 -1393h-53l758 1391h-908z" />
<glyph unicode="8" horiz-adv-x="1142" d="M72 377q0 125 85 230.5t236 144.5l39 4l-67 14q-109 45 -166.5 134t-57.5 194q2 172 130 267t296 95q203 0 315.5 -107.5t112.5 -256.5q0 -113 -66.5 -206t-189.5 -132l-39 -6l41 -4q162 -41 243 -141.5t81 -229.5q0 -162 -131 -278.5t-367 -116.5q-233 0 -364 116.5 t-131 278.5zM115 374.5q0 -143.5 119.5 -246.5t332.5 -103q215 0 334 103t119 246.5t-119 249t-334 105.5q-213 0 -332.5 -105.5t-119.5 -249zM184 1096q0 -131 100.5 -227.5t282.5 -96.5q184 0 283.5 96.5t99.5 229.5q0 154 -115.5 236.5t-267.5 82.5q-154 0 -268.5 -83 t-114.5 -238z" />
<glyph unicode="9" horiz-adv-x="1146" d="M80 989.5q0 188.5 131 325.5t364 139q236 0 367 -137t131 -326q0 -151 -84 -266l-497 -725h-52l375 551l55 67q-33 -25 -49 -34q-106 -55 -246 -56q-233 0 -364 136.5t-131 325zM123 989q0 -168 119.5 -292t332.5 -124q215 0 335 124t120 292q0 170 -119.5 295 t-335.5 125q-213 0 -332.5 -125t-119.5 -295z" />
<glyph unicode=":" horiz-adv-x="327" d="M113 41q0 23 14.5 36t34.5 13q18 0 32.5 -14.5t14.5 -34.5q0 -16 -14.5 -30.5t-32.5 -14.5q-20 0 -34.5 12t-14.5 33zM115 698q0 23 14.5 36.5t34.5 13.5q18 0 32.5 -14.5t14.5 -35.5q0 -16 -14.5 -30.5t-32.5 -14.5q-20 0 -34.5 12.5t-14.5 32.5z" />
<glyph unicode=";" horiz-adv-x="327" d="M43 -213h49l113 266h-66zM115 698q0 23 14.5 36.5t34.5 13.5q18 0 32.5 -14.5t14.5 -35.5q0 -16 -14.5 -30.5t-32.5 -14.5q-20 0 -34.5 12.5t-14.5 32.5z" />
<glyph unicode="&#x3c;" horiz-adv-x="935" d="M84 674v39l750 399v-51l-695 -367l695 -358v-51z" />
<glyph unicode="=" horiz-adv-x="1071" d="M117 401v41h813v-41h-813zM117 745v43h813v-43h-813z" />
<glyph unicode="&#x3e;" horiz-adv-x="929" d="M98 281v51l697 356l-697 369v51l750 -399v-39z" />
<glyph unicode="?" horiz-adv-x="1099" d="M74 1188q123 260 436 260q223 0 353 -127t126 -305q-2 -80 -24.5 -142.5t-64.5 -107.5t-81 -72.5t-94 -58.5q-53 -29 -75.5 -41t-56.5 -40t-46 -60.5t-12 -75.5v-238h-46v240q0 43 15.5 79t29 57.5t55.5 49t57.5 36.5t70.5 38q100 55 161.5 131t65.5 203 q4 160 -112.5 273.5t-321.5 113.5q-143 0 -244.5 -64.5t-152.5 -171.5zM471 35q0 16 12.5 28.5t28.5 12.5t27.5 -12.5t11.5 -28.5q0 -14 -12.5 -26.5t-26.5 -12.5t-27.5 12t-13.5 27z" />
<glyph unicode="@" horiz-adv-x="1607" d="M111 692.5q2 141.5 54 275.5t145 241.5t233.5 173t306.5 65.5q285 0 469 -165t188 -419q2 -139 -52 -273t-157.5 -218t-222.5 -70q-49 4 -76.5 42t-17.5 112h-6q-45 -70 -123 -115t-160 -41q-100 4 -174 91t-74 212q0 219 117 366.5t318 147.5q27 0 58.5 -8t69 -26.5 t65.5 -61.5t34 -102l47 131h41l-158 -519q-18 -45 -18 -92q0 -92 96 -92q145 0 247.5 161t102.5 355q0 181 -102 312l10 -11q-88 113 -226 175.5t-290 62.5q-207 0 -368.5 -104.5t-243.5 -265.5t-86 -341q-2 -131 34.5 -245.5t110.5 -208t202 -147.5t296 -54q100 0 200 41 l15 -39q-102 -41 -215 -41q-176 0 -312.5 56.5t-217.5 154.5t-121.5 220t-38.5 263.5zM489 604q0 -100 59.5 -177t151.5 -77q166 0 275 164q63 156 102 334q0 106 -54 165.5t-153 59.5q-182 2 -281.5 -139.5t-99.5 -329.5z" />
<glyph unicode="A" horiz-adv-x="1277" d="M41 0l577 1454h44l575 -1454h-49l-195 477h-710l-193 -477h-49zM301 520h674q-57 147 -168 434.5t-168 434.5z" />
<glyph unicode="B" horiz-adv-x="1243" d="M133 0v1432h580q113 0 190.5 -56.5t114.5 -148.5q24 -63 25 -134q0 -3 -1 -6q0 -76 -24 -139q-45 -115 -150 -172q133 -29 206 -138.5t73 -244.5q0 -158 -100.5 -275.5t-276.5 -117.5h-637zM178 43h592q158 0 246 103.5t88 244.5q0 143 -88 247.5t-246 104.5h-592v-700z M178 788h535q188 0 264 177q23 56 23 118q0 65 -23 127q-76 176 -264 176h-535v-598z" />
<glyph unicode="C" horiz-adv-x="1523" d="M78 715q0 303 207 520q207 211 495 211q291 0 496 -211q101 -102 154 -231h-50q-45 106 -135 200q-186 197 -465 197q-274 0 -465 -197q-192 -198 -192 -486t192 -485q192 -198 462 -198h3q276 0 465 198q90 90 135 199h50q-55 -131 -154 -231q-205 -211 -496 -211 q-289 0 -495 211q-207 217 -207 514z" />
<glyph unicode="D" horiz-adv-x="1415" d="M131 0v1434h485q170 0 307.5 -61.5t222.5 -164t130 -229.5t45 -264t-45 -263t-130 -228.5t-222.5 -163t-307.5 -60.5h-485zM174 43h442q311 0 486.5 198.5t175.5 473.5q0 129 -42 248.5t-122 216t-209 154t-289 57.5h-442v-1348z" />
<glyph unicode="E" d="M133 0v1434h795v-43h-752v-652h735v-45h-735v-651h756v-43h-799z" />
<glyph unicode="F" horiz-adv-x="985" d="M133 0v1434h776v-43h-735v-652h651v-45h-651v-694h-41z" />
<glyph unicode="G" horiz-adv-x="1566" d="M92 715q0 291 205 516q209 215 498 215q215 0 395 -123t252 -328h-47q-72 188 -237 297t-363 109q-264 0 -467 -203q-191 -212 -191 -485q0 -272 191 -482q198 -202 464 -202h3q215 0 403 148.5t229 365.5h-626v45h682q-6 -86 -35 -152q-74 -190 -267.5 -322t-385.5 -132 q-287 0 -498 217q-205 219 -205 516z" />
<glyph unicode="H" horiz-adv-x="1234" d="M133 0v1434h43v-686h879v686h45v-1434h-45v705h-879v-705h-43z" />
<glyph unicode="I" horiz-adv-x="780" d="M66 0v41h301v1354h-301v39h647v-39h-303v-1354h303v-41h-647z" />
<glyph unicode="J" horiz-adv-x="890" d="M57 0v45q293 0 477.5 141.5t184.5 419.5v785h-438v41h481v-826q0 -201 -96.5 -340t-252 -202.5t-356.5 -63.5z" />
<glyph unicode="K" horiz-adv-x="1095" d="M131 0v1434h45v-1434h-45zM213 698v37l762 699h72l-791 -715l811 -719h-72z" />
<glyph unicode="L" horiz-adv-x="1013" d="M133 0v1434h45v-1387h762v-47h-807z" />
<glyph unicode="M" horiz-adv-x="1513" d="M133 0v1434h41l586 -867l590 867h41v-1434h-43v1362l-572 -848h-28l-572 846v-1360h-43z" />
<glyph unicode="N" horiz-adv-x="1273" d="M133 0v1434h37l936 -1352v1352h43v-1434h-41l-930 1343v-1343h-45z" />
<glyph unicode="O" horiz-adv-x="1634" d="M80 717q0 297 217 520q211 217 514 217q307 0 518 -217q215 -221 215 -520t-215 -520q-211 -217 -518 -217q-303 0 -514 217q-217 223 -217 520zM125 716.5q0 -280.5 201 -487.5q204 -204 482 -204h3q287 0 487.5 204.5t200.5 487t-200.5 487.5t-487.5 205 q-281 0 -485 -205q-201 -207 -201 -487.5z" />
<glyph unicode="P" horiz-adv-x="1148" d="M133 0v1434h498q203 0 317.5 -133.5t114.5 -313.5q0 -182 -114.5 -314t-317.5 -132h-453v-541h-45zM178 584h453q184 0 286.5 118.5t102.5 282.5t-102.5 284t-286.5 120h-453v-805z" />
<glyph unicode="Q" horiz-adv-x="1650" d="M88 717q0 297 217 520q211 217 514 217q307 0 518 -217q215 -221 215 -520q0 -295 -211 -516l228 -201h-70l-192 168q-205 -188 -488 -188q-303 0 -514 217q-217 223 -217 520zM133 716.5q0 -280.5 201 -487.5q204 -204 482 -204h3q256 0 455 174l-436 387h67l406 -353 q198 205 198 484q0 281 -202 487q-201 205 -488 205q-281 0 -485 -205q-201 -207 -201 -487.5z" />
<glyph unicode="R" horiz-adv-x="1161" d="M133 0v1434h498q205 0 318.5 -126t113.5 -296q0 -172 -113.5 -296t-318.5 -124h-215l655 -592h-65l-658 596v37h283q184 0 286.5 112.5t102.5 266t-102.5 265.5t-286.5 112h-455v-1389h-43z" />
<glyph unicode="S" horiz-adv-x="1206" d="M109 358l45 4l2 -18q18 -143 154 -229t292 -86q178 0 318.5 98t140.5 260q0 41 -8 76q-12 53 -45 94t-71 63.5t-100.5 40t-107.5 23.5t-117 14q-84 8 -135 16.5t-123.5 31t-114.5 55.5t-76 92t-40 139q-1 15 -1 30q0 119 71 212q66 86 177 131t236 45q170 0 299 -82 t158 -231l4 -25l-43 -6l-4 20q-20 92 -76 154q-62 61 -158 95q-91 32 -181 32h-11q-106 -2 -207.5 -42t-161.5 -118q-60 -74 -60 -179q0 -16 1 -34q6 -68 36.5 -119t69.5 -79.5t105.5 -49t116 -28.5t127.5 -17q76 -8 125 -15t115.5 -25.5t108.5 -45t77.5 -72.5t50.5 -110 q10 -47 10 -88q0 -180 -154.5 -289.5t-353.5 -109.5q-109 0 -214 38.5t-184 121.5t-91 194z" />
<glyph unicode="T" horiz-adv-x="1148" d="M55 1389v45h1026v-45h-491v-1389h-43v1389h-492z" />
<glyph unicode="U" horiz-adv-x="1277" d="M139 391v1043h45v-1045q0 -170 140.5 -265t318.5 -95t318.5 96t140.5 266v1043h45v-1045q0 -186 -154.5 -295.5t-349.5 -109.5q-197 0 -350.5 109.5t-153.5 297.5z" />
<glyph unicode="V" horiz-adv-x="1290" d="M45 1432h49l549 -1389l549 1389h49l-575 -1455h-43z" />
<glyph unicode="W" horiz-adv-x="1824" d="M45 1432h45l453 -1369l336 955h53l338 -952l454 1366h45l-479 -1446h-37l-348 979q-59 -172 -175 -499t-169 -480h-37z" />
<glyph unicode="X" horiz-adv-x="1191" d="M51 0l520 715l-520 719h53l492 -676l494 676h51l-520 -719l520 -715h-51l-494 676l-492 -676h-53z" />
<glyph unicode="Y" horiz-adv-x="1185" d="M39 1432h55l496 -793l495 793h56l-529 -842v-590h-45v590z" />
<glyph unicode="Z" horiz-adv-x="1214" d="M72 0v57l1011 1336h-981v41h1026v-60l-1011 -1331h1028v-43h-1073z" />
<glyph unicode="[" horiz-adv-x="548" d="M203 -141v1722h272v-41h-229v-1640h221v-41h-264z" />
<glyph unicode="\" horiz-adv-x="821" d="M90 1581h45l580 -1696h-45z" />
<glyph unicode="]" horiz-adv-x="518" d="M70 1540v41h272v-1722h-264v41h221v1640h-229z" />
<glyph unicode="^" horiz-adv-x="1001" d="M106 664l381 770h33l383 -770h-49l-350 708l-352 -708h-46z" />
<glyph unicode="_" horiz-adv-x="1183" d="M117 -18h940v-43h-940v43z" />
<glyph unicode="`" horiz-adv-x="559" d="M160 1634h61l129 -164h-49z" />
<glyph unicode="a" horiz-adv-x="1286" d="M43 0l573 1450h43l576 -1450h-49l-195 475h-708l-193 -475h-47zM301 518h672q-45 113 -157.5 407.5t-178.5 458.5z" />
<glyph unicode="b" horiz-adv-x="1232" d="M133 0v1427h580q111 0 188.5 -56t114.5 -148q24 -61 24 -132v-6q0 -78 -24 -139q-47 -119 -150 -172q133 -29 205 -137.5t72 -243.5q0 -158 -98.5 -275.5t-274.5 -117.5h-637zM178 43h592q156 0 244 103.5t88 244.5t-88 245.5t-244 104.5h-592v-698zM178 784h535 q94 0 161.5 49.5t100.5 127.5q22 55 22 117v5q0 61 -22 123q-33 78 -100.5 127t-161.5 49h-535v-598z" />
<glyph unicode="c" horiz-adv-x="1523" d="M78 715q0 303 207 520q207 211 495 211q291 0 496 -211q101 -102 154 -231h-50q-45 106 -135 200q-186 197 -465 197q-274 0 -465 -197q-192 -198 -192 -486t192 -485q192 -198 462 -198h3q276 0 465 198q90 90 135 199h50q-55 -131 -154 -231q-205 -211 -496 -211 q-289 0 -495 211q-207 217 -207 514z" />
<glyph unicode="d" horiz-adv-x="1415" d="M131 0v1427h485q168 0 305.5 -61t222.5 -162.5t130 -227.5t45 -263.5t-45 -263t-130 -227t-222.5 -162t-305.5 -60.5h-485zM174 43h442q158 0 287 57.5t209 152.5t122 213t42 247t-42 247.5t-122 214t-209 152.5t-287 57h-442v-1341z" />
<glyph unicode="e" d="M133 0v1436h793v-43h-748v-656h731v-43h-731v-651h752v-43h-797z" />
<glyph unicode="f" horiz-adv-x="985" d="M133 0v1434h774v-43h-731v-654h647v-43h-647v-694h-43z" />
<glyph unicode="g" horiz-adv-x="1558" d="M94 719q0 295 205 514q205 215 496 215q215 0 394 -123t249 -328h-47q-72 188 -236 297t-360 109q-266 0 -465 -203q-190 -207 -191 -481q0 -276 191 -481q193 -203 465 -203q213 0 400 147.5t228 364.5h-622v45h678q-6 -86 -35 -152q-72 -188 -265.5 -320t-383.5 -132 q-289 0 -496 217q-205 211 -205 514z" />
<glyph unicode="h" horiz-adv-x="1234" d="M133 0v1436h43v-691h877v691h45v-1436h-45v702h-877v-702h-43z" />
<glyph unicode="i" horiz-adv-x="819" d="M86 0v43h301v1343h-301v41h645v-41h-301v-1343h301v-43h-645z" />
<glyph unicode="j" horiz-adv-x="880" d="M51 0v45q293 0 476.5 141.5t183.5 419.5v780h-437v41h480v-821q0 -299 -196 -452.5t-507 -153.5z" />
<glyph unicode="k" horiz-adv-x="1069" d="M133 0v1427h43v-1427h-43zM211 696v37l768 701h63l-790 -717l795 -717h-66z" />
<glyph unicode="l" horiz-adv-x="1013" d="M133 0v1438h45v-1393h760v-45h-805z" />
<glyph unicode="m" horiz-adv-x="1513" d="M135 0v1430h39l586 -865l588 865h38v-1430h-40v1358l-570 -846h-31l-569 844v-1356h-41z" />
<glyph unicode="n" horiz-adv-x="1271" d="M133 0v1432l37 -2l934 -1348v1348h41v-1430h-39l-928 1339v-1339h-45z" />
<glyph unicode="o" horiz-adv-x="1658" d="M98 715q0 299 215 518q211 217 514 217q305 0 516 -217q215 -221 216 -519q0 -296 -216 -517q-211 -217 -516 -217q-303 0 -514 217q-215 219 -215 518zM143 714.5q0 -284.5 201 -485.5q198 -204 480 -204h3q287 0 486 204q198 203 198 485.5t-198 485.5 q-201 205 -486 205q-283 0 -483 -205q-201 -201 -201 -485.5z" />
<glyph unicode="p" horiz-adv-x="1157" d="M133 0v1434h496q205 0 318.5 -133.5t113.5 -313.5q0 -182 -113.5 -313t-318.5 -131h-451v-543h-45zM178 586h451q184 0 286.5 117.5t102.5 281.5t-102.5 284t-286.5 120h-451v-803z" />
<glyph unicode="q" horiz-adv-x="1650" d="M82 715q0 303 214 519t515 216t518 -215t217 -520q0 -289 -215 -514l225 -201h-69l-191 168q-205 -188 -485 -188q-301 0 -515 216t-214 519zM127 714.5q0 -282.5 200.5 -486t483.5 -203.5q258 0 453 174l-435 385h66l405 -351q197 203 197 482q0 285 -201.5 487.5 t-484.5 202.5t-483.5 -204t-200.5 -486.5z" />
<glyph unicode="r" horiz-adv-x="1165" d="M133 0v1430h496q205 0 318.5 -126t113.5 -296q0 -172 -113.5 -295t-318.5 -123h-215l655 -590h-65l-656 594v37h281q184 0 286.5 111.5t102.5 265t-102.5 265t-286.5 111.5h-453v-1384h-43z" />
<glyph unicode="s" horiz-adv-x="1185" d="M86 354l47 4l2 -20q18 -143 155.5 -230.5t293.5 -87.5q180 0 321.5 99.5t141.5 263.5q0 37 -9 76q-14 68 -56 112.5t-112.5 69.5t-127 35t-148.5 20q-219 23 -301 58q-174 72 -197 278q-1 15 -1 29q1 181 139 283q150 110 354 110q170 0 302 -83t161 -234l4 -21l-45 -8 l-4 20q-20 92 -76 154q-60 63 -158 97q-92 32 -186 32h-11q-180 -3 -311 -105q-120 -93 -120 -244q0 -14 1 -28q4 -59 23.5 -105t58.5 -77t74 -50.5t96.5 -31.5t97 -17t105.5 -14q98 -10 159.5 -21t137.5 -38t122 -80t64 -131q10 -55 11 -88q0 -182 -156 -293t-356 -111 q-109 0 -215.5 39t-186.5 123t-92 195z" />
<glyph unicode="t" horiz-adv-x="1148" d="M55 1384v46h1024v-46h-491v-1384h-41v1384h-492z" />
<glyph unicode="u" horiz-adv-x="1265" d="M131 391v1036h45v-1038q0 -115 70.5 -200t172 -122.5t214.5 -37.5q178 0 318.5 96t140.5 266v1036h43v-1038q0 -186 -154 -295.5t-348.5 -109.5t-348 109.5t-153.5 297.5z" />
<glyph unicode="v" horiz-adv-x="1290" d="M47 1440h47l547 -1397l549 1397h49l-575 -1463h-43z" />
<glyph unicode="w" horiz-adv-x="1824" d="M45 1436h45l453 -1373l336 951h51l336 -948l454 1370h45l-479 -1450h-35l-346 975q-31 -86 -154.5 -436.5t-189.5 -538.5h-37z" />
<glyph unicode="x" horiz-adv-x="1191" d="M53 0l518 713l-518 714h51l490 -675q381 520 493 675h50l-519 -714l519 -713h-50l-493 676l-490 -676h-51z" />
<glyph unicode="y" horiz-adv-x="1185" d="M41 1434h53l494 -797l495 797h54l-527 -846v-588h-43v588z" />
<glyph unicode="z" horiz-adv-x="1214" d="M72 0v57l1011 1336h-981v41h1026v-60l-1011 -1331h1028v-43h-1073z" />
<glyph unicode="{" horiz-adv-x="552" d="M119 684v61q141 49 141 291v359q0 88 41 140t125 52h37v-39q-80 4 -119 -27.5t-39 -125.5v-361q1 -249 -149 -319v-2q150 -68 149 -307v-349q0 -88 39 -122.5t119 -36.5v-37q-111 0 -157 49t-46 143v348q0 227 -141 283z" />
<glyph unicode="|" horiz-adv-x="434" d="M195 -305v1859h47v-1859h-47z" />
<glyph unicode="~" horiz-adv-x="1071" d="M102 643q59 94 134 127t146 17.5t163 -64.5q106 -70 205.5 -60t171.5 125l30 -18q-141 -240 -430 -82q-84 47 -145.5 59.5t-124 -16.5t-121.5 -108z" />
<glyph unicode="&#xa2;" horiz-adv-x="1540" d="M94 713q0 293 205 501q191 197 461 209v174h45v-172q281 -6 481 -211q96 -100 152 -231h-49q-41 106 -134 201q-186 190 -450 196v-1337q264 4 450 199q90 86 134 196h49q-59 -135 -152 -229q-201 -209 -481 -211v-207h-45v209q-270 8 -461 209q-205 209 -205 504z M137 713q0 -276 191 -471q176 -186 432 -199v1335q-254 -12 -432 -194q-190 -197 -191 -471z" />
<glyph unicode="&#xa3;" horiz-adv-x="1073" d="M68 0v43h161v643h-157v41h157v336q0 188 106.5 285.5t258.5 97.5q301 0 377 -262l-41 -10q-68 229 -332 229q-135 0 -228.5 -84t-93.5 -256v-336h455v-41h-455v-643h719v-43h-927z" />
<glyph unicode="&#xa5;" horiz-adv-x="1185" d="M39 1432h55l496 -795l495 795h56l-502 -799h326v-41h-353v-186h351v-41h-351v-365h-45v365h-344v41h344v186h-342v41h316z" />
<glyph unicode="&#xa8;" horiz-adv-x="747" d="M147 1602q0 23 15 36t35 13q18 0 32.5 -14.5t14.5 -34.5q0 -16 -14.5 -31t-32.5 -15q-20 0 -35 12.5t-15 33.5zM467 1602q0 23 14.5 36t34.5 13q18 0 32.5 -14.5t14.5 -34.5q0 -16 -14 -31t-33 -15q-20 0 -34.5 12.5t-14.5 33.5z" />
<glyph unicode="&#xa9;" horiz-adv-x="1622" d="M117 717q0 305 200.5 507.5t485.5 202.5q287 0 488.5 -202.5t201.5 -507.5t-201.5 -510t-488.5 -205q-283 0 -484.5 205t-201.5 510zM162 717q0 -291 186.5 -481.5t454.5 -190.5q270 0 457.5 190.5t187.5 481.5t-186.5 479t-458.5 188q-268 0 -454.5 -188t-186.5 -479z M426 709q0 160 113 278q111 115 270 115q162 0 272 -115q53 -53 90 -143h-51q-25 63 -73 108q-96 102 -237.5 102.5t-240 -102t-98.5 -243.5q0 -139 98 -242q96 -100 239.5 -100t238.5 100q46 42 73 108h51q-39 -90 -90 -141q-113 -117 -272 -117q-158 0 -270 117 q-113 113 -113 275z" />
<glyph unicode="&#xaa;" horiz-adv-x="1286" d="M43 0l573 1450h43l576 -1450h-49l-195 475h-708l-193 -475h-47zM43 -80h1202v-43h-1202v43zM301 518h672q-45 113 -157.5 407.5t-178.5 458.5z" />
<glyph unicode="&#xab;" horiz-adv-x="868" d="M104 739l320 402h55l-321 -402l321 -395h-55zM367 739l319 402h55l-321 -402l321 -395h-55z" />
<glyph unicode="&#xac;" horiz-adv-x="1138" d="M94 782v41h899v-481h-41v440h-858z" />
<glyph unicode="&#xad;" horiz-adv-x="786" d="M127 694v45h504v-45h-504z" />
<glyph unicode="&#xae;" horiz-adv-x="1642" d="M115 721q0 309 203.5 515t492.5 206q293 0 497.5 -206t204.5 -515q0 -311 -204.5 -519t-497.5 -208q-289 0 -492.5 208t-203.5 519zM158 721q0 -297 190.5 -491.5t462.5 -194.5q276 0 467.5 194.5t191.5 491.5q0 295 -191.5 487.5t-467.5 192.5q-272 0 -462.5 -192.5 t-190.5 -487.5zM604 354v742h234q104 0 171.5 -56.5t69.5 -152.5q0 -84 -64.5 -149.5t-176.5 -67.5h-76l305 -316h-57l-293 314v39h121q98 2 149 55t51 127q0 72 -51 120t-149 48h-193v-703h-41z" />
<glyph unicode="&#xb1;" horiz-adv-x="1089" d="M111 0v39h870v-39h-870zM111 692v41h405v408h43v-408h406v-41h-406v-422h-43v422h-405z" />
<glyph unicode="&#xb4;" horiz-adv-x="499" d="M184 1470l133 164h62l-146 -164h-49z" />
<glyph unicode="&#xb5;" horiz-adv-x="1513" d="M135 0v1430h39l586 -865l588 865h38v-1430h-40v1358l-570 -846h-31l-569 844v-1356h-41z" />
<glyph unicode="&#xb8;" horiz-adv-x="598" d="M139 -326l6 35q55 -39 145.5 -28.5t100.5 69.5q10 57 -51 87t-137 22q14 29 42.5 79t41.5 72h43l-68 -119q96 0 138 -46t34 -101q-8 -51 -54 -78.5t-112 -27.5q-68 0 -129 36z" />
<glyph unicode="&#xba;" horiz-adv-x="815" d="M123 1149q0 117 80 194.5t196 77.5q119 0 200 -77.5t81 -194.5q0 -121 -80 -200t-198.5 -79t-198.5 79t-80 200zM137 621v43h539v-43h-539zM166 1149q0 -104 68.5 -172t167 -68t166 67.5t67.5 172.5q0 102 -67.5 166.5t-166 64.5t-167 -64.5t-68.5 -166.5z" />
<glyph unicode="&#xbb;" horiz-adv-x="831" d="M86 344l322 395l-322 402h55l320 -402l-320 -395h-55zM348 344l322 395l-322 402h55l320 -402l-320 -395h-55z" />
<glyph unicode="&#xf7;" horiz-adv-x="1046" d="M78 707h856v43h-856v-43zM463 393q0 23 14.5 36t34.5 13q18 0 32.5 -14t14.5 -35q0 -16 -14.5 -30.5t-32.5 -14.5q-20 0 -34.5 12.5t-14.5 32.5zM463 1036q0 23 14.5 36t34.5 13q18 0 32.5 -14t14.5 -35q0 -16 -14.5 -30.5t-32.5 -14.5q-20 0 -34.5 12.5t-14.5 32.5z" />
<glyph unicode="&#x192;" horiz-adv-x="952" d="M-6 -403l6 38h35q240 0 295 281l194 1006h-194l8 34h192l25 131q33 205 108 280t216 73v-39q-129 2 -191.5 -73t-89.5 -238l-25 -134h232l-8 -34h-230l-194 -1012q-61 -313 -342 -313h-37z" />
<glyph unicode="&#x2c6;" horiz-adv-x="677" d="M160 1481l149 137h66l149 -137h-53l-129 106l-129 -106h-53z" />
<glyph unicode="&#x2da;" horiz-adv-x="659" d="M221 1610q0 45 32 76.5t79 31.5t80.5 -31.5t33.5 -76.5t-33.5 -76t-82.5 -31q-45 0 -77 31t-32 76zM258 1610q0 -29 21.5 -50.5t52.5 -21.5q33 0 55.5 21.5t22.5 50.5q0 31 -22.5 52t-55.5 21q-31 0 -52.5 -21t-21.5 -52z" />
<glyph unicode="&#x2dc;" horiz-adv-x="610" d="M123 1483q6 61 67 86q57 25 121 -25.5t101 -36.5q37 16 49 62l35 -10q-16 -66 -70 -86q-43 -16 -83 6t-75 45.5t-67 7.5q-37 -16 -45 -59z" />
<glyph unicode="&#x3a9;" horiz-adv-x="1675" d="M63 0v39h502q-193 61 -323.5 243.5t-130.5 446.5q0 315 202.5 521t522.5 206q317 -2 520 -208t203 -519q0 -264 -131.5 -446.5t-321.5 -243.5h500v-39h-572l-14 49q209 55 351 235.5t142 444.5q0 295 -189 489.5t-488 196.5q-301 0 -490.5 -194.5t-189.5 -491.5 q0 -268 142 -445.5t351 -234.5l-14 -49h-572z" />
<glyph unicode="&#x3c0;" horiz-adv-x="1230" d="M133 0v1434h967v-1434h-45v1391h-879v-1391h-43z" />
<glyph unicode="&#x401;" d="M133 0h799v43h-756v651h735v45h-735v652h752v43h-795v-1434zM338 1579q0 23 14.5 36t34.5 13q18 0 32.5 -14.5t14.5 -34.5q0 -16 -14 -30.5t-33 -14.5q-20 0 -34.5 12.5t-14.5 32.5zM657 1579q0 23 15 36t35 13q18 0 32.5 -14.5t14.5 -34.5q0 -16 -14.5 -30.5 t-32.5 -14.5q-20 0 -35 12.5t-15 32.5z" />
<glyph unicode="&#x402;" horiz-adv-x="1470" d="M47 1389v45h1026v-45h-491v-480q139 141 325 133q193 -8 317 -124.5t122 -315.5v-184q2 -410 -394 -420v39q172 12 260 99t88 282v184q0 190 -132 301t-304 97.5t-282 -144.5v-856h-43v1389h-492z" />
<glyph unicode="&#x403;" d="M133 0v1434h795v-43h-752v-1391h-43zM498 1536l133 164h61l-145 -164h-49z" />
<glyph unicode="&#x404;" horiz-adv-x="1523" d="M78 715q0 303 207 520q207 211 495 211q291 0 496 -211q101 -102 154 -231h-50q-45 106 -135 200q-186 197 -465 197q-274 0 -465 -197q-186 -193 -192 -467h987v-43h-987q6 -270 192 -461q193 -199 465 -198q276 0 465 198q90 90 135 199h50q-55 -131 -154 -231 q-205 -211 -496 -211q-289 0 -495 211q-207 217 -207 514z" />
<glyph unicode="&#x405;" horiz-adv-x="1206" d="M109 358l45 4l2 -18q18 -143 154 -229t292 -86q178 0 318.5 98t140.5 260q0 41 -8 76q-12 53 -45 94t-71 63.5t-100.5 40t-107.5 23.5t-117 14q-84 8 -135 16.5t-123.5 31t-114.5 55.5t-76 92t-40 139q-10 137 70 242q66 86 177 131t236 45q170 0 299 -82t158 -231l4 -25 l-43 -6l-4 20q-20 92 -76 154q-61 61 -157.5 95t-192.5 32q-106 -2 -207.5 -42t-161.5 -118q-70 -86 -59 -213q6 -68 36.5 -119t69.5 -79.5t105.5 -49t116 -28.5t127.5 -17q76 -8 125 -15t115.5 -25.5t108.5 -45t77.5 -72.5t50.5 -110q10 -47 10 -88q0 -180 -154.5 -289.5 t-353.5 -109.5q-109 0 -214 38.5t-184 121.5t-91 194z" />
<glyph unicode="&#x406;" horiz-adv-x="780" d="M66 0v41h301v1354h-301v39h647v-39h-303v-1354h303v-41h-647z" />
<glyph unicode="&#x407;" horiz-adv-x="780" d="M66 0h647v41h-303v1354h303v39h-647v-39h301v-1354h-301v-41zM182 1575q0 23 14.5 36t34.5 13q18 0 33 -14.5t15 -34.5q0 -16 -14.5 -30.5t-33.5 -14.5q-20 0 -34.5 12t-14.5 33zM502 1575q0 23 14.5 36t34.5 13q18 0 32.5 -14.5t14.5 -34.5q0 -16 -14.5 -30.5 t-32.5 -14.5q-20 0 -34.5 12t-14.5 33z" />
<glyph unicode="&#x408;" horiz-adv-x="890" d="M57 0v45q293 0 477.5 141.5t184.5 419.5v785h-438v41h481v-826q0 -201 -96.5 -340t-252 -202.5t-356.5 -63.5z" />
<glyph unicode="&#x409;" horiz-adv-x="1918" d="M49 0l817 1434h84v-678h496q170 0 273.5 -98.5t103.5 -276.5q0 -158 -99.5 -269.5t-277.5 -111.5h-541v1399h-10l-797 -1399h-49zM950 43h496q158 0 245 98.5t87 237.5q0 143 -86 237.5t-246 94.5h-496v-668z" />
<glyph unicode="&#x40a;" horiz-adv-x="1955" d="M131 0v1434h43v-678h768v678h45v-678h496q170 0 273.5 -98.5t103.5 -276.5q0 -158 -99.5 -269.5t-277.5 -111.5h-541v713h-768v-713h-43zM987 43h496q158 0 245 98.5t87 237.5q0 143 -86.5 237.5t-245.5 94.5h-496v-668z" />
<glyph unicode="&#x40b;" horiz-adv-x="1480" d="M51 1389v45h1026v-45h-491v-480q139 141 325 133q193 -8 317 -124.5t122 -315.5v-602h-45v602q0 190 -132.5 301t-304.5 97.5t-282 -144.5v-856h-43v1389h-492z" />
<glyph unicode="&#x40c;" horiz-adv-x="1095" d="M131 0v1434h45v-1434h-45zM213 698v37l737 699h62l-756 -715l811 -719h-72zM516 1534l107 176h61l-121 -176h-47z" />
<glyph unicode="&#x40e;" horiz-adv-x="1107" d="M63 1434h50l456 -979l437 979h49l-637 -1436h-51l178 401zM350 1536v47h438v-47h-438z" />
<glyph unicode="&#x40f;" horiz-adv-x="1230" d="M133 0v1434h45v-1391h879v1391h43v-1434h-475v-217h-43v217h-449z" />
<glyph unicode="&#x410;" horiz-adv-x="1277" d="M41 0l577 1454h44l575 -1454h-49l-195 477h-710l-193 -477h-49zM301 520h674q-57 147 -168 434.5t-168 434.5z" />
<glyph unicode="&#x411;" horiz-adv-x="1243" d="M133 0v1434h916v-43h-871v-603h592q168 0 272.5 -107.5t104.5 -287.5q0 -158 -100.5 -275.5t-276.5 -117.5h-637zM178 43h592q156 0 244 103.5t88 244.5q0 147 -87 249.5t-245 102.5h-592v-700z" />
<glyph unicode="&#x412;" horiz-adv-x="1243" d="M133 0v1432h580q113 0 190.5 -56.5t114.5 -148.5q25 -66 24 -140q0 -76 -24 -139q-45 -115 -150 -172q133 -29 206 -138.5t73 -244.5q0 -158 -100.5 -275.5t-276.5 -117.5h-637zM178 43h592q158 0 246 103.5t88 244.5q0 143 -88 247.5t-246 104.5h-592v-700zM178 788h535 q188 0 264 177q23 57 22.5 120.5t-22.5 124.5q-76 176 -264 176h-535v-598z" />
<glyph unicode="&#x413;" horiz-adv-x="1036" d="M143 0v1434h795v-43h-752v-1391h-43z" />
<glyph unicode="&#x414;" horiz-adv-x="1384" d="M66 39l77 4q49 29 84 72t55.5 102t30 101t19.5 108q16 106 33 322l43 686h774v-1393h114v-375h-45v334h-1142v-334h-43v373zM195 41h942v1352h-688l-39 -641q-16 -217 -33 -328q-14 -94 -26.5 -146.5t-53.5 -128t-102 -108.5z" />
<glyph unicode="&#x415;" d="M133 0v1434h795v-43h-752v-652h735v-45h-735v-651h756v-43h-799z" />
<glyph unicode="&#x416;" horiz-adv-x="1746" d="M47 0l725 719l-668 715h58l655 -699v-37l-702 -698h-68zM854 0v1434h45v-1434h-45zM936 698v37l655 699h58l-668 -715l725 -719h-68z" />
<glyph unicode="&#x417;" horiz-adv-x="1148" d="M72 313l41 6q20 -131 125.5 -213.5t300.5 -82.5q219 0 339.5 102t120.5 246q0 145 -119.5 247.5t-340.5 102.5h-101v41h101q190 0 289.5 93t99.5 230q0 94 -51.5 166t-129 108t-171 44t-177.5 -12.5t-149.5 -77t-85.5 -135.5l-41 8q23 94 96.5 158.5t166.5 89t196.5 15.5 t189.5 -51t142.5 -125t56.5 -189.5t-62 -205t-209 -133.5v-2q162 -33 254.5 -128t92.5 -242q0 -166 -134.5 -279.5t-373.5 -113.5q-211 0 -329 92t-138 241z" />
<glyph unicode="&#x418;" horiz-adv-x="1273" d="M133 0v1434h45v-1344l930 1344h41v-1434h-43v1352l-936 -1352h-37z" />
<glyph unicode="&#x419;" horiz-adv-x="1273" d="M133 0v1434h45v-1344l930 1344h41v-1434h-43v1352l-936 -1352h-37zM422 1538v47h438v-47h-438z" />
<glyph unicode="&#x41a;" horiz-adv-x="1095" d="M131 0v1434h45v-1434h-45zM213 698v37l737 699h62l-756 -715l811 -719h-72z" />
<glyph unicode="&#x41b;" horiz-adv-x="1277" d="M41 0l577 1454h44l575 -1454h-51l-547 1386l-547 -1386h-51z" />
<glyph unicode="&#x41c;" horiz-adv-x="1513" d="M133 0v1434h41l586 -867l590 867h41v-1434h-43v1362l-572 -848h-28l-572 846v-1360h-43z" />
<glyph unicode="&#x41d;" horiz-adv-x="1232" d="M133 0v1434h43v-686h879v686h45v-1434h-45v705h-879v-705h-43z" />
<glyph unicode="&#x41e;" horiz-adv-x="1634" d="M80 717q0 297 217 520q211 217 514 217q307 0 518 -217q215 -221 215 -520t-215 -520q-211 -217 -518 -217q-303 0 -514 217q-217 223 -217 520zM125 716.5q0 -280.5 201 -487.5q205 -205 485 -204q287 0 487.5 204.5t200.5 487t-200.5 487.5t-487.5 205 q-281 0 -485 -205q-201 -207 -201 -487.5z" />
<glyph unicode="&#x41f;" horiz-adv-x="1230" d="M133 0v1434h967v-1434h-45v1391h-879v-1391h-43z" />
<glyph unicode="&#x420;" horiz-adv-x="1148" d="M133 0v1434h498q203 0 317.5 -133.5t114.5 -313.5q0 -182 -114.5 -314t-317.5 -132h-453v-541h-45zM178 584h453q184 0 286.5 118.5t102.5 282.5t-102.5 284t-286.5 120h-453v-805z" />
<glyph unicode="&#x421;" horiz-adv-x="1523" d="M78 715q0 303 207 520q207 211 495 211q291 0 496 -211q101 -102 154 -231h-50q-45 106 -135 200q-186 197 -465 197q-274 0 -465 -197q-193 -199 -192 -489q0 -285 192 -482q193 -199 465 -198q276 0 465 198q90 90 135 199h50q-55 -131 -154 -231q-205 -211 -496 -211 q-289 0 -495 211q-207 217 -207 514z" />
<glyph unicode="&#x422;" horiz-adv-x="1148" d="M55 1389v45h1026v-45h-491v-1389h-43v1389h-492z" />
<glyph unicode="&#x423;" horiz-adv-x="1107" d="M63 1434h50l456 -979l437 979h49l-637 -1436h-51l178 401z" />
<glyph unicode="&#x424;" horiz-adv-x="1591" d="M88 719.5q0 109.5 45 215t127 188.5t215 133.5t299 50.5v127h45v-127q164 0 297 -50.5t215 -133.5t126 -188.5t44 -215t-44 -215t-126 -188.5t-215 -133t-297 -50v-133h-45v133q-166 0 -299 50t-215 133t-127 188.5t-45 215zM147.5 834.5q-32.5 -115.5 2 -231.5 t105.5 -212t209 -156.5t312 -60.5q0 1087 -2 1090q-176 0 -314 -60.5t-209 -157t-103.5 -212zM817 879.5q0 -160.5 1 -320.5t1 -272v-113q135 0 250 37t188.5 100.5t125 145.5t62.5 172t0 180t-62.5 172t-125 145.5t-188.5 100.5t-252 37v-113v-271.5z" />
<glyph unicode="&#x425;" horiz-adv-x="1191" d="M53 0l518 713l-518 714h51l490 -675q381 520 493 675h50l-519 -714l519 -713h-50l-493 676l-490 -676h-51z" />
<glyph unicode="&#x426;" horiz-adv-x="1218" d="M143 0v1434h45v-1393h789v1393h45v-1393h111v-373h-46v332h-944z" />
<glyph unicode="&#x427;" horiz-adv-x="1153" d="M135 995v439h45v-439q0 -139 81 -234t202 -130t259 -25t253 66v762h45v-1434h-45v627q-125 -59 -271.5 -66.5t-273.5 32.5t-211 145.5t-84 256.5z" />
<glyph unicode="&#x428;" horiz-adv-x="1880" d="M133 0v1434h45v-1393h740v1393h45v-1393h739v1393h45v-1434h-1614z" />
<glyph unicode="&#x429;" horiz-adv-x="1945" d="M135 0v1434h45v-1393h740v1393h45v-1393h739v1393h45v-1393h121v-373h-45v332h-1690z" />
<glyph unicode="&#x42a;" horiz-adv-x="1347" d="M33 1393v41h250v-646h591q168 0 272.5 -107.5t104.5 -287.5q0 -158 -100 -275.5t-277 -117.5h-636v1393h-205zM283 43h591q158 0 245 103.5t87 244.5q0 147 -87 249.5t-245 102.5h-591v-700z" />
<glyph unicode="&#x42b;" horiz-adv-x="1488" d="M133 0v1434h45v-646h592q168 0 272.5 -107.5t104.5 -287.5q0 -158 -100.5 -275.5t-276.5 -117.5h-637zM178 43h592q156 0 244 103.5t88 244.5q0 147 -87 249.5t-245 102.5h-592v-700zM1313 0v1417h45v-1417h-45z" />
<glyph unicode="&#x42c;" horiz-adv-x="1243" d="M133 0v1434h45v-646h592q168 0 272.5 -107.5t104.5 -287.5q0 -158 -100.5 -275.5t-276.5 -117.5h-637zM178 43h592q156 0 244 103.5t88 244.5q0 147 -87 249.5t-245 102.5h-592v-700z" />
<glyph unicode="&#x42d;" horiz-adv-x="1523" d="M84 432h49q45 -109 135 -199q188 -199 465 -198q272 0 465 198q186 190 193 461h-988v43h988q-6 274 -193 467q-190 197 -465 197q-279 0 -465 -197q-90 -94 -135 -200h-49q53 129 154 231q205 211 495 211q289 0 496 -211q207 -217 207 -520q0 -297 -207 -514 q-207 -211 -496 -211q-291 0 -495 211q-98 100 -154 231z" />
<glyph unicode="&#x42e;" horiz-adv-x="1978" d="M145 0v1434h45v-699h254q6 315 209 518q203 201 510 201q319 -4 522 -213t203 -528q0 -121 -28 -230q-29 -100 -84 -186q-57 -86 -123 -141q-70 -61 -152 -101q-70 -37 -166 -61q-86 -18 -172 -19q-106 0 -205 29q-168 45 -291.5 160t-181.5 278q-37 106 -41 254h-254 v-696h-45zM487 713q4 -147 41 -252q53 -156 169 -263.5t274 -154.5q92 -27 192.5 -27t194.5 27q98 29 184 82q88 57 154 137q70 86 108 197q39 121 39 254q0 301 -189.5 499.5t-490.5 200.5q-289 0 -479 -190q-193 -193 -197 -510z" />
<glyph unicode="&#x42f;" horiz-adv-x="1161" d="M96 0l656 592h-215q-205 0 -319 124t-114 296q0 170 114 296t319 126h497v-1434h-43v1389h-454q-184 0 -287 -112t-103 -265.5t102.5 -266t287.5 -112.5h282v-37l-657 -596h-66z" />
<glyph unicode="&#x430;" horiz-adv-x="1277" d="M41 0l577 1454h44l575 -1454h-49l-195 477h-710l-193 -477h-49zM301 520h674q-57 147 -168 434.5t-168 434.5z" />
<glyph unicode="&#x431;" horiz-adv-x="1243" d="M133 0v1434h916v-43h-871v-603h592q168 0 272.5 -107.5t104.5 -287.5q0 -158 -100.5 -275.5t-276.5 -117.5h-637zM178 43h592q156 0 244 103.5t88 244.5q0 147 -87 249.5t-245 102.5h-592v-700z" />
<glyph unicode="&#x432;" horiz-adv-x="1243" d="M133 0v1432h580q113 0 190.5 -56.5t114.5 -148.5q25 -66 24 -140q0 -76 -24 -139q-45 -115 -150 -172q133 -29 206 -138.5t73 -244.5q0 -158 -100.5 -275.5t-276.5 -117.5h-637zM178 43h592q158 0 246 103.5t88 244.5q0 143 -88 247.5t-246 104.5h-592v-700zM178 788h535 q188 0 264 177q23 57 22.5 120.5t-22.5 124.5q-76 176 -264 176h-535v-598z" />
<glyph unicode="&#x433;" d="M133 0v1434h795v-43h-752v-1391h-43z" />
<glyph unicode="&#x434;" horiz-adv-x="1384" d="M66 39l77 4q49 29 84 72t55.5 102t30 101t19.5 108q16 106 33 322l43 686h774v-1393h114v-375h-45v334h-1142v-334h-43v373zM195 41h942v1352h-688l-39 -641q-16 -217 -33 -328q-14 -94 -26.5 -146.5t-53.5 -128t-102 -108.5z" />
<glyph unicode="&#x435;" d="M133 0v1434h795v-43h-752v-652h735v-45h-735v-651h756v-43h-799z" />
<glyph unicode="&#x436;" horiz-adv-x="1746" d="M47 0l725 719l-668 715h58l655 -699v-37l-702 -698h-68zM854 0v1434h45v-1434h-45zM936 698v37l655 699h58l-668 -715l725 -719h-68z" />
<glyph unicode="&#x437;" horiz-adv-x="1150" d="M72 313l41 6q20 -131 125.5 -213.5t300.5 -82.5q219 0 339.5 102t120.5 246q0 145 -119.5 247.5t-340.5 102.5h-101v41h101q190 0 289.5 93t99.5 230q0 94 -51.5 166t-129 108t-171 44t-177.5 -12.5t-149.5 -77t-85.5 -135.5l-41 8q23 94 96.5 158.5t166.5 89t196.5 15.5 t189.5 -51t142.5 -125t56.5 -189.5t-62 -205t-209 -133.5v-2q162 -33 254.5 -128t92.5 -242q0 -166 -134.5 -279.5t-373.5 -113.5q-211 0 -329 92t-138 241z" />
<glyph unicode="&#x438;" horiz-adv-x="1273" d="M133 0v1434h45v-1344l930 1344h41v-1434h-43v1352l-936 -1352h-37z" />
<glyph unicode="&#x439;" horiz-adv-x="1273" d="M133 0v1434h45v-1344l930 1344h41v-1434h-43v1352l-936 -1352h-37zM422 1538v47h438v-47h-438z" />
<glyph unicode="&#x43a;" horiz-adv-x="1095" d="M131 0v1434h45v-1434h-45zM213 698v37l737 699h62l-756 -715l811 -719h-72z" />
<glyph unicode="&#x43b;" horiz-adv-x="1277" d="M41 0l577 1454h44l575 -1454h-51l-547 1386l-547 -1386h-51z" />
<glyph unicode="&#x43c;" horiz-adv-x="1513" d="M133 0v1434h41l586 -867l590 867h41v-1434h-43v1362l-572 -848h-28l-572 846v-1360h-43z" />
<glyph unicode="&#x43d;" horiz-adv-x="1232" d="M133 0v1434h43v-686h879v686h45v-1434h-45v705h-879v-705h-43z" />
<glyph unicode="&#x43e;" horiz-adv-x="1634" d="M80 717q0 297 217 520q211 217 514 217q307 0 518 -217q215 -221 215 -520t-215 -520q-211 -217 -518 -217q-303 0 -514 217q-217 223 -217 520zM125 716.5q0 -280.5 201 -487.5q205 -205 485 -204q287 0 487.5 204.5t200.5 487t-200.5 487.5t-487.5 205 q-281 0 -485 -205q-201 -207 -201 -487.5z" />
<glyph unicode="&#x43f;" horiz-adv-x="1230" d="M133 0v1434h967v-1434h-45v1391h-879v-1391h-43z" />
<glyph unicode="&#x440;" horiz-adv-x="1148" d="M133 0v1434h498q203 0 317.5 -133.5t114.5 -313.5q0 -182 -114.5 -314t-317.5 -132h-453v-541h-45zM178 584h453q184 0 286.5 118.5t102.5 282.5t-102.5 284t-286.5 120h-453v-805z" />
<glyph unicode="&#x441;" horiz-adv-x="1523" d="M78 715q0 303 207 520q207 211 495 211q291 0 496 -211q101 -102 154 -231h-50q-45 106 -135 200q-186 197 -465 197q-274 0 -465 -197q-193 -199 -192 -489q0 -285 192 -482q193 -199 465 -198q276 0 465 198q90 90 135 199h50q-55 -131 -154 -231q-205 -211 -496 -211 q-289 0 -495 211q-207 217 -207 514z" />
<glyph unicode="&#x442;" horiz-adv-x="1148" d="M55 1389v45h1026v-45h-491v-1389h-43v1389h-492z" />
<glyph unicode="&#x443;" horiz-adv-x="1107" d="M63 1434h50l456 -979l437 979h49l-637 -1436h-51l178 401z" />
<glyph unicode="&#x444;" horiz-adv-x="1591" d="M88 719.5q0 109.5 45 215t127 188.5t215 133.5t299 50.5v127h45v-127q164 0 297 -50.5t215 -133.5t126 -188.5t44 -215t-44 -215t-126 -188.5t-215 -133t-297 -50v-133h-45v133q-166 0 -299 50t-215 133t-127 188.5t-45 215zM147.5 834.5q-32.5 -115.5 2 -231.5 t105.5 -212t209 -156.5t312 -60.5q0 1087 -2 1090q-176 0 -314 -60.5t-209 -157t-103.5 -212zM817 879.5q0 -160.5 1 -320.5t1 -272v-113q135 0 250 37t188.5 100.5t125 145.5t62.5 172t0 180t-62.5 172t-125 145.5t-188.5 100.5t-252 37v-113v-271.5z" />
<glyph unicode="&#x445;" horiz-adv-x="1191" d="M53 0l518 713l-518 714h51l490 -675q381 520 493 675h50l-519 -714l519 -713h-50l-493 676l-490 -676h-51z" />
<glyph unicode="&#x446;" horiz-adv-x="1218" d="M143 0v1434h45v-1393h789v1393h45v-1393h111v-373h-46v332h-944z" />
<glyph unicode="&#x447;" horiz-adv-x="1153" d="M135 995v439h45v-439q0 -139 81 -234t202 -130t259 -25t253 66v762h45v-1434h-45v627q-125 -59 -271.5 -66.5t-273.5 32.5t-211 145.5t-84 256.5z" />
<glyph unicode="&#x448;" horiz-adv-x="1880" d="M133 0v1434h45v-1393h740v1393h45v-1393h739v1393h45v-1434h-1614z" />
<glyph unicode="&#x449;" horiz-adv-x="1945" d="M135 0v1434h45v-1393h740v1393h45v-1393h739v1393h45v-1393h121v-373h-45v332h-1690z" />
<glyph unicode="&#x44a;" horiz-adv-x="1347" d="M33 1393v41h250v-646h591q168 0 272.5 -107.5t104.5 -287.5q0 -158 -100 -275.5t-277 -117.5h-636v1393h-205zM283 43h591q158 0 245 103.5t87 244.5q0 147 -87 249.5t-245 102.5h-591v-700z" />
<glyph unicode="&#x44b;" horiz-adv-x="1488" d="M133 0v1434h45v-646h592q168 0 272.5 -107.5t104.5 -287.5q0 -158 -100.5 -275.5t-276.5 -117.5h-637zM178 43h592q156 0 244 103.5t88 244.5q0 147 -87 249.5t-245 102.5h-592v-700zM1313 0v1417h45v-1417h-45z" />
<glyph unicode="&#x44c;" horiz-adv-x="1243" d="M133 0v1434h45v-646h592q168 0 272.5 -107.5t104.5 -287.5q0 -158 -100.5 -275.5t-276.5 -117.5h-637zM178 43h592q156 0 244 103.5t88 244.5q0 147 -87 249.5t-245 102.5h-592v-700z" />
<glyph unicode="&#x44d;" horiz-adv-x="1523" d="M84 432h49q45 -109 135 -199q188 -199 465 -198q272 0 465 198q186 190 193 461h-988v43h988q-6 274 -193 467q-190 197 -465 197q-279 0 -465 -197q-90 -94 -135 -200h-49q53 129 154 231q205 211 495 211q289 0 496 -211q207 -217 207 -520q0 -297 -207 -514 q-207 -211 -496 -211q-291 0 -495 211q-98 100 -154 231z" />
<glyph unicode="&#x44e;" horiz-adv-x="1978" d="M145 0v1434h45v-699h254q6 315 209 518q203 201 510 201q319 -4 522 -213t203 -528q0 -121 -28 -230q-29 -100 -84 -186q-57 -86 -123 -141q-70 -61 -152 -101q-70 -37 -166 -61q-86 -18 -172 -19q-106 0 -205 29q-168 45 -291.5 160t-181.5 278q-37 106 -41 254h-254 v-696h-45zM487 713q4 -147 41 -252q53 -156 169 -263.5t274 -154.5q92 -27 192.5 -27t194.5 27q98 29 184 82q88 57 154 137q70 86 108 197q39 121 39 254q0 301 -189.5 499.5t-490.5 200.5q-289 0 -479 -190q-193 -193 -197 -510z" />
<glyph unicode="&#x44f;" horiz-adv-x="1161" d="M96 0l656 592h-215q-205 0 -319 124t-114 296q0 170 114 296t319 126h497v-1434h-43v1389h-454q-184 0 -287 -112t-103 -265.5t102.5 -266t287.5 -112.5h282v-37l-657 -596h-66z" />
<glyph unicode="&#x451;" d="M133 0h799v43h-756v651h735v45h-735v652h752v43h-795v-1434zM338 1579q0 23 14.5 36t34.5 13q18 0 32.5 -14.5t14.5 -34.5q0 -16 -14 -30.5t-33 -14.5q-20 0 -34.5 12.5t-14.5 32.5zM657 1579q0 23 15 36t35 13q18 0 32.5 -14.5t14.5 -34.5q0 -16 -14.5 -30.5 t-32.5 -14.5q-20 0 -35 12.5t-15 32.5z" />
<glyph unicode="&#x452;" horiz-adv-x="1470" d="M47 1389v45h1026v-45h-491v-480q139 141 325 133q193 -8 317 -124.5t122 -315.5v-184q2 -410 -394 -420v39q172 12 260 99t88 282v184q0 190 -132 301t-304 97.5t-282 -144.5v-856h-43v1389h-492z" />
<glyph unicode="&#x453;" d="M133 0v1434h795v-43h-752v-1391h-43zM483 1536l133 164h62l-146 -164h-49z" />
<glyph unicode="&#x454;" horiz-adv-x="1523" d="M78 715q0 303 207 520q207 211 495 211q291 0 496 -211q101 -102 154 -231h-50q-45 106 -135 200q-186 197 -465 197q-274 0 -465 -197q-186 -193 -192 -467h987v-43h-987q6 -270 192 -461q193 -199 465 -198q276 0 465 198q90 90 135 199h50q-55 -131 -154 -231 q-205 -211 -496 -211q-289 0 -495 211q-207 217 -207 514z" />
<glyph unicode="&#x455;" horiz-adv-x="1206" d="M109 358l45 4l2 -18q18 -143 154 -229t292 -86q178 0 318.5 98t140.5 260q0 41 -8 76q-12 53 -45 94t-71 63.5t-100.5 40t-107.5 23.5t-117 14q-84 8 -135 16.5t-123.5 31t-114.5 55.5t-76 92t-40 139q-10 137 70 242q66 86 177 131t236 45q170 0 299 -82t158 -231l4 -25 l-43 -6l-4 20q-20 92 -76 154q-61 61 -157.5 95t-192.5 32q-106 -2 -207.5 -42t-161.5 -118q-70 -86 -59 -213q6 -68 36.5 -119t69.5 -79.5t105.5 -49t116 -28.5t127.5 -17q76 -8 125 -15t115.5 -25.5t108.5 -45t77.5 -72.5t50.5 -110q10 -47 10 -88q0 -180 -154.5 -289.5 t-353.5 -109.5q-109 0 -214 38.5t-184 121.5t-91 194z" />
<glyph unicode="&#x456;" horiz-adv-x="780" d="M66 0v41h301v1354h-301v39h647v-39h-303v-1354h303v-41h-647z" />
<glyph unicode="&#x457;" horiz-adv-x="780" d="M66 0h647v41h-303v1354h303v39h-647v-39h301v-1354h-301v-41zM182 1575q0 23 14.5 36t34.5 13q18 0 33 -14.5t15 -34.5q0 -16 -14.5 -30.5t-33.5 -14.5q-20 0 -34.5 12t-14.5 33zM502 1575q0 23 14.5 36t34.5 13q18 0 32.5 -14.5t14.5 -34.5q0 -16 -14.5 -30.5 t-32.5 -14.5q-20 0 -34.5 12t-14.5 33z" />
<glyph unicode="&#x458;" horiz-adv-x="890" d="M57 0v45q293 0 477.5 141.5t184.5 419.5v785h-438v41h481v-826q0 -201 -96.5 -340t-252 -202.5t-356.5 -63.5z" />
<glyph unicode="&#x459;" horiz-adv-x="1918" d="M49 0l817 1434h84v-678h496q170 0 273.5 -98.5t103.5 -276.5q0 -158 -99.5 -269.5t-277.5 -111.5h-541v1399h-10l-797 -1399h-49zM950 43h496q158 0 245 98.5t87 237.5q0 143 -86 237.5t-246 94.5h-496v-668z" />
<glyph unicode="&#x45a;" horiz-adv-x="1955" d="M131 0v1434h43v-678h768v678h45v-678h496q170 0 273.5 -98.5t103.5 -276.5q0 -158 -99.5 -269.5t-277.5 -111.5h-541v713h-768v-713h-43zM987 43h496q158 0 245 98.5t87 237.5q0 143 -86.5 237.5t-245.5 94.5h-496v-668z" />
<glyph unicode="&#x45b;" horiz-adv-x="1480" d="M51 1389v45h1026v-45h-491v-480q139 141 325 133q193 -8 317 -124.5t122 -315.5v-602h-45v602q0 190 -132.5 301t-304.5 97.5t-282 -144.5v-856h-43v1389h-492z" />
<glyph unicode="&#x45c;" horiz-adv-x="1095" d="M131 0v1434h45v-1434h-45zM213 698v37l737 699h62l-756 -715l811 -719h-72zM516 1534l107 176h61l-121 -176h-47z" />
<glyph unicode="&#x45e;" horiz-adv-x="1107" d="M63 1434h50l456 -979l437 979h49l-637 -1436h-51l178 401zM350 1536v47h438v-47h-438z" />
<glyph unicode="&#x45f;" horiz-adv-x="1230" d="M133 0v1434h45v-1391h879v1391h43v-1434h-475v-217h-43v217h-449z" />
<glyph unicode="&#x490;" d="M133 0v1434h756v159h39v-202h-752v-1391h-43z" />
<glyph unicode="&#x491;" d="M133 0v1434h756v159h39v-202h-752v-1391h-43z" />
<glyph unicode="&#x2000;" horiz-adv-x="859" />
<glyph unicode="&#x2001;" horiz-adv-x="1718" />
<glyph unicode="&#x2002;" horiz-adv-x="859" />
<glyph unicode="&#x2003;" horiz-adv-x="1718" />
<glyph unicode="&#x2004;" horiz-adv-x="572" />
<glyph unicode="&#x2005;" horiz-adv-x="429" />
<glyph unicode="&#x2006;" horiz-adv-x="286" />
<glyph unicode="&#x2007;" horiz-adv-x="286" />
<glyph unicode="&#x2008;" horiz-adv-x="214" />
<glyph unicode="&#x2009;" horiz-adv-x="343" />
<glyph unicode="&#x200a;" horiz-adv-x="95" />
<glyph unicode="&#x2010;" horiz-adv-x="786" d="M127 694v45h504v-45h-504z" />
<glyph unicode="&#x2011;" horiz-adv-x="786" d="M127 694v45h504v-45h-504z" />
<glyph unicode="&#x2012;" horiz-adv-x="786" d="M127 694v45h504v-45h-504z" />
<glyph unicode="&#x2013;" horiz-adv-x="1267" d="M139 709v43h979v-43h-979z" />
<glyph unicode="&#x2014;" horiz-adv-x="1654" d="M150 702v43h1370v-43h-1370z" />
<glyph unicode="&#x2018;" horiz-adv-x="409" d="M121 1171l112 267h50l-97 -267h-65z" />
<glyph unicode="&#x2019;" horiz-adv-x="403" d="M125 1171l96 267h66l-113 -267h-49z" />
<glyph unicode="&#x201a;" horiz-adv-x="450" d="M98 -229l109 317h61l-123 -317h-47z" />
<glyph unicode="&#x201c;" horiz-adv-x="593" d="M121 1171l112 267h50l-97 -267h-65zM305 1171l113 267h49l-96 -267h-66z" />
<glyph unicode="&#x201d;" horiz-adv-x="579" d="M119 1171l96 267h66l-113 -267h-49zM303 1171l96 267h66l-113 -267h-49z" />
<glyph unicode="&#x201e;" horiz-adv-x="608" d="M109 -229l108 317h55l-125 -317h-38zM270 -229l109 317h55l-125 -317h-39z" />
<glyph unicode="&#x2026;" horiz-adv-x="839" d="M135 39q0 47 41 47q47 0 47 -47q0 -18 -13 -30.5t-34 -12.5q-18 0 -29.5 12t-11.5 31zM371 39q0 47 43 47q47 0 47 -47q0 -18 -13.5 -30.5t-33.5 -12.5q-18 0 -30.5 13.5t-12.5 29.5zM604 39q0 47 43 47q45 0 45 -47q0 -18 -12 -30.5t-33 -12.5q-18 0 -30.5 13.5 t-12.5 29.5z" />
<glyph unicode="&#x202f;" horiz-adv-x="343" />
<glyph unicode="&#x2030;" horiz-adv-x="2084" d="M139 1147q0 127 86 212t207 85t207 -85t86 -212q0 -121 -86 -208t-207 -87t-207 85t-86 210zM182 1147q0 -106 72 -181t178 -75q109 0 180.5 75t71.5 181q0 111 -71.5 184.5t-180.5 73.5q-106 0 -178 -75t-72 -183zM213 -23l944 1489h47l-942 -1489h-49zM709 283 q0 127 86 212t206.5 85t206.5 -85t86 -212q0 -121 -86 -208t-206.5 -87t-206.5 85t-86 210zM752 283q0 -106 71.5 -181t177.5 -75q109 0 180.5 75t71.5 181q0 111 -71.5 184.5t-180.5 73.5q-106 0 -177.5 -75t-71.5 -183zM1374 283q0 127 86 212t207 85t207 -85t86 -212 q0 -121 -86 -208t-207 -87t-207 85t-86 210zM1417 283q0 -106 72 -181t178 -75q109 0 180.5 75t71.5 181q0 111 -71.5 184.5t-180.5 73.5q-106 0 -178 -75t-72 -183z" />
<glyph unicode="&#x2039;" horiz-adv-x="583" d="M92 700l322 402h55l-322 -402l322 -395h-55z" />
<glyph unicode="&#x203a;" horiz-adv-x="593" d="M123 301l321 395l-321 402h55l318 -402l-318 -395h-55z" />
<glyph unicode="&#x2044;" horiz-adv-x="421" d="M-178 -68l713 1508h43l-715 -1508h-41z" />
<glyph unicode="&#x205f;" horiz-adv-x="429" />
<glyph unicode="&#x20ac;" horiz-adv-x="1552" d="M47 635v41h94v84h-94v41h98q20 227 199 413q207 211 496 211q287 0 493 -211q98 -104 152 -231h-49q-47 111 -133 201q-190 197 -463 196.5t-465 -196.5q-166 -172 -189 -383h369v-41h-373v-84h373v-41h-371q25 -227 191 -393q193 -199 465 -199q274 0 463 199 q84 82 133 196h49q-55 -131 -152 -229q-207 -211 -493 -211q-289 0 -496 211q-178 184 -201 426h-96z" />
<glyph unicode="&#x2122;" horiz-adv-x="1792" d="M82 1399v35h623v-35h-293v-787h-43v787h-287zM823 612v822h76l322 -590l321 590h80v-822h-45v795h-2l-332 -608h-45l-332 608h-2v-795h-41z" />
<glyph unicode="&#x221e;" horiz-adv-x="704" d="M125 715q0 88 60.5 149.5t146.5 61.5q88 0 147.5 -61.5t59.5 -149.5t-60.5 -150.5t-146.5 -62.5t-146.5 62.5t-60.5 150.5z" />
<glyph unicode="&#x2248;" horiz-adv-x="1079" d="M104 547q96 127 206 127t241 -88q98 -80 197.5 -79t183.5 107l29 -20q-164 -225 -439 -39q-106 82 -201.5 81t-191.5 -110zM104 778q96 127 206 127t241 -88q98 -80 197.5 -78.5t183.5 107.5l29 -21q-164 -225 -439 -39q-106 82 -201.5 81t-191.5 -109z" />
<glyph unicode="&#x2260;" horiz-adv-x="1056" d="M109 512v33h305l225 305h-530v35h553l149 213l35 -11l-144 -202h220v-35h-244l-225 -305h471v-33h-494l-156 -215q-6 4 -19 6t-17 4l153 205h-282z" />
<glyph unicode="&#x2264;" horiz-adv-x="1009" d="M113 10v39h776v-39h-776zM113 698v39l749 400v-52l-702 -366l702 -359v-51z" />
<glyph unicode="&#x2265;" horiz-adv-x="1015" d="M113 10v39h776v-39h-776zM139 307v49l703 361l-703 368v50l750 -400v-39z" />
<glyph unicode="&#x25fc;" horiz-adv-x="1423" d="M0 0v1423h1423v-1423h-1423z" />
</font>
</defs>
</svg>
